# xmcd
#
# Track frame offsets:
#	150
#	23552
#	39220
#	60112
#	83492
#	99610
#	118890
#	143320
#	153082
#	172200
#	189652
#	213975
#	234497
#	249027
#	270877
#	283087
#
# Disc length: 4097 seconds
#
# Revision: 1
# Processed by: cddbd v1.5.1PL0 Copyright (c) Steve Scherf et al.
# Submitted via: CDex 1.50Beta5
#
DISCID=bf0fff10
DTITLE=L.Bアソシエイション - 失われたボールをもとめて
DYEAR=1993
DGENRE=
TTITLE0=L.Bアソシエイション/失われたボールをもとめて
TTITLE1=片桐麻美/山羊にひかれて
TTITLE2=杉林恭雄/時には母のない子のように
TTITLE3=裕木奈江/ロングロングアゴー
TTITLE4=鈴木宗一郎/ボレロ*田園に死す
TTITLE5=辻仁成/事物のフォークロア
TTITLE6=DATE OF BIRTH/カウボーイポップ
TTITLE7=大槻ケンヂ/田園に死す
TTITLE8=ローリー寺西/そら豆の詩
TTITLE9=タモリ/遠く天井桟敷から
TTITLE10=あがた森魚/パレアコリントスの幻
TTITLE11=白井良明/寺山倉庫
TTITLE12=戸川純/二人のことば
TTITLE13=友部正人/空が描いたボール
TTITLE14=巻上公一/いちばん短い抒情詩
TTITLE15=山崎ハコ/風に乗って昭和
EXTD=
EXTT0=
EXTT1=
EXTT2=
EXTT3=
EXTT4=
EXTT5=
EXTT6=
EXTT7=
EXTT8=
EXTT9=
EXTT10=
EXTT11=
EXTT12=
EXTT13=
EXTT14=
EXTT15=
PLAYORDER=
